<svg width="72" height="72" viewBox="0 0 72 72" fill="none" xmlns="http://www.w3.org/2000/svg">
<path d="M15 66C13.35 66 11.9375 65.4125 10.7625 64.2375C9.5875 63.0625 9 61.65 9 60V18C9 16.35 9.5875 14.9375 10.7625 13.7625C11.9375 12.5875 13.35 12 15 12H18V6H24V12H48V6H54V12H57C58.65 12 60.0625 12.5875 61.2375 13.7625C62.4125 14.9375 63 16.35 63 18V60C63 61.65 62.4125 63.0625 61.2375 64.2375C60.0625 65.4125 58.65 66 57 66H15ZM15 60H57V30H15V60ZM15 24H57V18H15V24ZM36 42C35.15 42 34.4375 41.7125 33.8625 41.1375C33.2875 40.5625 33 39.85 33 39C33 38.15 33.2875 37.4375 33.8625 36.8625C34.4375 36.2875 35.15 36 36 36C36.85 36 37.5625 36.2875 38.1375 36.8625C38.7125 37.4375 39 38.15 39 39C39 39.85 38.7125 40.5625 38.1375 41.1375C37.5625 41.7125 36.85 42 36 42ZM21.8625 41.1375C21.2875 40.5625 21 39.85 21 39C21 38.15 21.2875 37.4375 21.8625 36.8625C22.4375 36.2875 23.15 36 24 36C24.85 36 25.5625 36.2875 26.1375 36.8625C26.7125 37.4375 27 38.15 27 39C27 39.85 26.7125 40.5625 26.1375 41.1375C25.5625 41.7125 24.85 42 24 42C23.15 42 22.4375 41.7125 21.8625 41.1375ZM48 42C47.15 42 46.4375 41.7125 45.8625 41.1375C45.2875 40.5625 45 39.85 45 39C45 38.15 45.2875 37.4375 45.8625 36.8625C46.4375 36.2875 47.15 36 48 36C48.85 36 49.5625 36.2875 50.1375 36.8625C50.7125 37.4375 51 38.15 51 39C51 39.85 50.7125 40.5625 50.1375 41.1375C49.5625 41.7125 48.85 42 48 42ZM36 54C35.15 54 34.4375 53.7125 33.8625 53.1375C33.2875 52.5625 33 51.85 33 51C33 50.15 33.2875 49.4375 33.8625 48.8625C34.4375 48.2875 35.15 48 36 48C36.85 48 37.5625 48.2875 38.1375 48.8625C38.7125 49.4375 39 50.15 39 51C39 51.85 38.7125 52.5625 38.1375 53.1375C37.5625 53.7125 36.85 54 36 54ZM21.8625 53.1375C21.2875 52.5625 21 51.85 21 51C21 50.15 21.2875 49.4375 21.8625 48.8625C22.4375 48.2875 23.15 48 24 48C24.85 48 25.5625 48.2875 26.1375 48.8625C26.7125 49.4375 27 50.15 27 51C27 51.85 26.7125 52.5625 26.1375 53.1375C25.5625 53.7125 24.85 54 24 54C23.15 54 22.4375 53.7125 21.8625 53.1375ZM48 54C47.15 54 46.4375 53.7125 45.8625 53.1375C45.2875 52.5625 45 51.85 45 51C45 50.15 45.2875 49.4375 45.8625 48.8625C46.4375 48.2875 47.15 48 48 48C48.85 48 49.5625 48.2875 50.1375 48.8625C50.7125 49.4375 51 50.15 51 51C51 51.85 50.7125 52.5625 50.1375 53.1375C49.5625 53.7125 48.85 54 48 54Z" fill="#210702"/>
</svg>
