<svg width="40" height="40" viewBox="0 0 40 40" fill="none" xmlns="http://www.w3.org/2000/svg">
<path d="M7 5.41667V34.5833C7 35.0254 7.1756 35.4493 7.48816 35.7618C7.80072 36.0744 8.22464 36.25 8.66667 36.25H10.6083V3.75H8.66667C8.22464 3.75 7.80072 3.92559 7.48816 4.23816C7.1756 4.55072 7 4.97464 7 5.41667Z" stroke="#FECEB1" stroke-linecap="round" stroke-linejoin="round"/>
<path d="M10.6084 3.75V36.25H31.3334C31.7754 36.25 32.1994 36.0744 32.5119 35.7618C32.8245 35.4493 33.0001 35.0254 33.0001 34.5833V5.41667C33.0001 4.97464 32.8245 4.55072 32.5119 4.23816C32.1994 3.92559 31.7754 3.75 31.3334 3.75H10.6084Z" stroke="#FECEB1" stroke-linecap="round" stroke-linejoin="round"/>
<path d="M20.05 12.0369V15.5476H16.5388V19.0584H20.05V26.2882H23.5592V19.0584H27.0699V15.5476H23.5587V12.0369H20.05Z" stroke="#FECEB1" stroke-linecap="round" stroke-linejoin="round"/>
</svg>
