<svg width="250" height="71" viewBox="0 0 250 71" fill="none" xmlns="http://www.w3.org/2000/svg">
<path d="M0 29.792V29.472H1.344C1.664 29.472 1.94133 29.4293 2.176 29.344C2.432 29.2373 2.624 29.0347 2.752 28.736C2.90133 28.4373 2.976 27.9893 2.976 27.392V9.216C2.976 8.64 2.90133 8.21333 2.752 7.936C2.60267 7.65867 2.4 7.47733 2.144 7.392C1.90933 7.30667 1.64267 7.264 1.344 7.264H0V6.944H9.824C12.7893 6.944 14.9867 7.552 16.416 8.768C17.8453 9.984 18.56 11.6373 18.56 13.728C18.56 14.688 18.3893 15.6053 18.048 16.48C17.7067 17.3547 17.1627 18.144 16.416 18.848C15.6907 19.5307 14.72 20.0747 13.504 20.48C12.3093 20.864 10.848 21.056 9.12 21.056H8.032V27.552C8.032 28.1067 8.10667 28.5227 8.256 28.8C8.42667 29.0773 8.64 29.2587 8.896 29.344C9.152 29.4293 9.42933 29.472 9.728 29.472H11.68V29.792H0ZM8.8 20.736C9.58933 20.736 10.2613 20.6187 10.816 20.384C11.3707 20.128 11.8187 19.7333 12.16 19.2C12.5227 18.6453 12.7787 17.9413 12.928 17.088C13.0987 16.2347 13.184 15.2 13.184 13.984C13.184 12.3627 13.056 11.0613 12.8 10.08C12.544 9.09867 12.128 8.384 11.552 7.936C10.976 7.488 10.2187 7.264 9.28 7.264H8.032V20.736H8.8Z" fill="#FECEB1"/>
<path d="M28.6045 29.792V29.472H29.9165C30.3218 29.472 30.6632 29.3973 30.9405 29.248C31.2178 29.0987 31.4632 28.8533 31.6765 28.512C31.9112 28.1707 32.1352 27.712 32.3485 27.136L39.7405 6.944H42.8765L50.0445 27.168C50.2578 27.744 50.4712 28.2027 50.6845 28.544C50.9192 28.8853 51.1752 29.1307 51.4525 29.28C51.7298 29.408 52.0712 29.472 52.4765 29.472H52.5725V29.792H42.0125V29.472H43.7405C44.2312 29.472 44.5938 29.3973 44.8285 29.248C45.0845 29.0773 45.2125 28.8107 45.2125 28.448C45.2125 28.32 45.1912 28.1813 45.1485 28.032C45.1272 27.8613 45.0952 27.68 45.0525 27.488C45.0098 27.2747 44.9458 27.0507 44.8605 26.816L43.0365 21.44H34.7805L32.9565 26.4C32.8498 26.6773 32.7538 26.944 32.6685 27.2C32.6045 27.4347 32.5512 27.648 32.5085 27.84C32.4658 28.032 32.4445 28.2133 32.4445 28.384C32.4445 28.7893 32.5725 29.0773 32.8285 29.248C33.0845 29.3973 33.4792 29.472 34.0125 29.472H36.2845V29.792H28.6045ZM34.9085 21.12H42.9405L40.9565 15.136C40.7858 14.624 40.5832 14.016 40.3485 13.312C40.1352 12.5867 39.9218 11.8613 39.7085 11.136C39.5165 10.3893 39.3565 9.74933 39.2285 9.216C39.1005 9.6 38.9512 10.0373 38.7805 10.528C38.6098 11.0187 38.4285 11.5307 38.2365 12.064C38.0445 12.5973 37.8525 13.1093 37.6605 13.6C37.4898 14.0907 37.3298 14.528 37.1805 14.912L34.9085 21.12Z" fill="#FECEB1"/>
<path d="M64.0263 29.792V29.472H65.3703C65.6689 29.472 65.9356 29.4293 66.1702 29.344C66.4262 29.2587 66.6289 29.0773 66.7783 28.8C66.9276 28.5227 67.0023 28.1067 67.0023 27.552V9.216C67.0023 8.64 66.9276 8.21333 66.7783 7.936C66.6289 7.65867 66.4262 7.47733 66.1702 7.392C65.9356 7.30667 65.6689 7.264 65.3703 7.264H64.0263V6.944H74.3303C76.3569 6.944 78.0103 7.168 79.2903 7.616C80.5916 8.064 81.5516 8.736 82.1702 9.632C82.7889 10.5067 83.0983 11.584 83.0983 12.864C83.0983 13.9947 82.8743 14.9547 82.4263 15.744C81.9996 16.5333 81.4236 17.184 80.6982 17.696C79.9942 18.208 79.2156 18.6133 78.3623 18.912L81.9143 24.96C82.5116 25.984 83.0023 26.8053 83.3863 27.424C83.7916 28.0213 84.1329 28.4693 84.4103 28.768C84.6876 29.0453 84.9329 29.2373 85.1463 29.344C85.3596 29.4293 85.5836 29.472 85.8183 29.472H85.8823V29.792H84.8263C83.8663 29.792 83.0236 29.7493 82.2983 29.664C81.5729 29.5787 80.9329 29.4293 80.3783 29.216C79.8236 29.0027 79.3223 28.6933 78.8743 28.288C78.4476 27.8613 78.0529 27.3173 77.6903 26.656L73.5623 19.104H72.0583V27.552C72.0583 28.1067 72.1329 28.5227 72.2822 28.8C72.4316 29.0773 72.6343 29.2587 72.8903 29.344C73.1463 29.4293 73.4129 29.472 73.6903 29.472H75.0663V29.792H64.0263ZM73.8503 18.784C74.7676 18.784 75.5036 18.592 76.0583 18.208C76.6343 17.8027 77.0503 17.1733 77.3063 16.32C77.5836 15.4667 77.7223 14.368 77.7223 13.024C77.7223 11.68 77.5836 10.592 77.3063 9.76C77.0289 8.90667 76.6023 8.27733 76.0263 7.872C75.4503 7.46667 74.7036 7.264 73.7863 7.264H72.0583V18.784H73.8503Z" fill="#FECEB1"/>
<path d="M108.298 30.112C105.866 30.112 103.85 29.6213 102.25 28.64C100.65 27.6587 99.4449 26.2827 98.6342 24.512C97.8449 22.7413 97.4502 20.672 97.4502 18.304C97.4502 15.936 97.8449 13.8773 98.6342 12.128C99.4449 10.3787 100.65 9.024 102.25 8.064C103.872 7.08267 105.898 6.592 108.33 6.592C110.634 6.592 112.586 7.08267 114.186 8.064C115.808 9.024 117.034 10.3893 117.866 12.16C118.698 13.9093 119.114 15.968 119.114 18.336C119.114 20.704 118.688 22.7733 117.834 24.544C117.002 26.2933 115.786 27.6587 114.186 28.64C112.586 29.6213 110.624 30.112 108.298 30.112ZM108.298 29.792C109.258 29.792 110.08 29.5787 110.762 29.152C111.445 28.704 112 28.0213 112.426 27.104C112.874 26.1653 113.205 24.9707 113.418 23.52C113.632 22.0693 113.738 20.3413 113.738 18.336C113.738 16.3307 113.632 14.6133 113.418 13.184C113.205 11.7333 112.874 10.5493 112.426 9.632C112 8.69333 111.445 8.01067 110.762 7.584C110.08 7.136 109.269 6.912 108.33 6.912C107.37 6.912 106.538 7.136 105.834 7.584C105.152 8.01067 104.586 8.69333 104.138 9.632C103.69 10.5493 103.36 11.7333 103.146 13.184C102.933 14.6133 102.826 16.3307 102.826 18.336C102.826 20.3413 102.933 22.0693 103.146 23.52C103.36 24.9707 103.68 26.1653 104.106 27.104C104.554 28.0213 105.12 28.704 105.802 29.152C106.506 29.5787 107.338 29.792 108.298 29.792ZM106.954 4.8C107.274 4.33067 107.594 3.81867 107.914 3.264C108.234 2.70933 108.544 2.144 108.842 1.568C109.141 0.992001 109.408 0.469334 109.642 0H113.802V0.32C113.525 0.597333 113.12 0.949333 112.586 1.376C112.074 1.78133 111.498 2.21867 110.858 2.688C110.24 3.136 109.61 3.57333 108.97 4C108.352 4.42667 107.786 4.8 107.274 5.12H106.954V4.8Z" fill="#FECEB1"/>
<path d="M149.902 37.472C148.942 37.472 147.992 37.3333 147.054 37.056C146.136 36.7787 145.294 36.3307 144.526 35.712C143.758 35.1147 143.128 34.336 142.638 33.376C142.147 32.4373 141.848 31.296 141.742 29.952C139.822 29.632 138.232 28.96 136.974 27.936C135.715 26.8907 134.766 25.5467 134.126 23.904C133.507 22.2613 133.198 20.3947 133.198 18.304C133.198 15.936 133.592 13.8773 134.382 12.128C135.192 10.3787 136.398 9.024 137.998 8.064C139.619 7.08267 141.646 6.592 144.078 6.592C146.382 6.592 148.334 7.08267 149.934 8.064C151.555 9.024 152.782 10.3893 153.614 12.16C154.446 13.9093 154.862 15.968 154.862 18.336C154.862 21.3013 154.19 23.7973 152.846 25.824C151.523 27.8507 149.603 29.1627 147.086 29.76C147.086 31.0613 147.171 32.1707 147.342 33.088C147.534 34.0267 147.811 34.7947 148.174 35.392C148.558 35.9893 149.038 36.4267 149.614 36.704C150.19 37.0027 150.883 37.152 151.694 37.152H152.206V37.472H149.902ZM144.046 29.792C145.006 29.792 145.827 29.5787 146.51 29.152C147.192 28.704 147.747 28.0213 148.174 27.104C148.622 26.1653 148.952 24.9707 149.166 23.52C149.379 22.0693 149.486 20.3413 149.486 18.336C149.486 16.3307 149.379 14.6133 149.166 13.184C148.952 11.7333 148.622 10.5493 148.174 9.632C147.747 8.69333 147.192 8.01067 146.51 7.584C145.827 7.136 145.016 6.912 144.078 6.912C143.118 6.912 142.286 7.136 141.582 7.584C140.899 8.01067 140.334 8.69333 139.886 9.632C139.438 10.5493 139.107 11.7333 138.894 13.184C138.68 14.6133 138.574 16.3307 138.574 18.336C138.574 20.3413 138.68 22.0693 138.894 23.52C139.107 24.9707 139.427 26.1653 139.854 27.104C140.302 28.0213 140.867 28.704 141.55 29.152C142.254 29.5787 143.086 29.792 144.046 29.792Z" fill="#FECEB1"/>
<path d="M179.569 30.112C177.713 30.112 176.124 29.8667 174.801 29.376C173.479 28.8853 172.465 28.1067 171.761 27.04C171.057 25.9733 170.705 24.5653 170.705 22.816V9.216C170.705 8.64 170.631 8.21333 170.481 7.936C170.332 7.65867 170.129 7.47733 169.873 7.392C169.639 7.30667 169.372 7.264 169.073 7.264H167.697V6.944H178.737V7.264H177.393C177.095 7.264 176.817 7.31733 176.561 7.424C176.327 7.50933 176.135 7.70133 175.985 8C175.836 8.27733 175.761 8.72533 175.761 9.344V24.864C175.761 26.0587 175.953 27.008 176.337 27.712C176.743 28.3947 177.297 28.8853 178.001 29.184C178.727 29.4827 179.569 29.632 180.529 29.632C181.895 29.632 183.047 29.376 183.985 28.864C184.945 28.352 185.671 27.616 186.161 26.656C186.673 25.6747 186.929 24.5227 186.929 23.2V9.216C186.929 8.64 186.855 8.21333 186.705 7.936C186.556 7.65867 186.353 7.47733 186.097 7.392C185.863 7.30667 185.596 7.264 185.297 7.264H183.313V6.944H190.577V7.264H188.881C188.583 7.264 188.305 7.31733 188.049 7.424C187.815 7.50933 187.623 7.70133 187.473 8C187.324 8.27733 187.249 8.72533 187.249 9.344V23.2C187.249 24.7147 186.951 25.9947 186.353 27.04C185.777 28.064 184.913 28.832 183.761 29.344C182.631 29.856 181.233 30.112 179.569 30.112Z" fill="#FECEB1"/>
<path d="M202.548 29.792V29.472H203.891C204.211 29.472 204.489 29.4293 204.723 29.344C204.979 29.2373 205.171 29.0347 205.299 28.736C205.449 28.4373 205.523 27.9893 205.523 27.392V9.344C205.523 8.72533 205.449 8.27733 205.299 8C205.171 7.70133 204.979 7.50933 204.723 7.424C204.489 7.31733 204.211 7.264 203.891 7.264H202.548V6.944H213.587V7.264H212.243C211.945 7.264 211.667 7.31733 211.411 7.424C211.155 7.50933 210.953 7.70133 210.803 8C210.675 8.27733 210.611 8.72533 210.611 9.344V27.392C210.611 27.9893 210.675 28.4373 210.803 28.736C210.953 29.0347 211.155 29.2373 211.411 29.344C211.667 29.4293 211.945 29.472 212.243 29.472H213.587V29.792H202.548Z" fill="#FECEB1"/>
<path d="M225.183 29.792V29.472H226.495C226.901 29.472 227.242 29.3973 227.519 29.248C227.797 29.0987 228.042 28.8533 228.255 28.512C228.49 28.1707 228.714 27.712 228.927 27.136L236.319 6.944H239.455L246.623 27.168C246.837 27.744 247.05 28.2027 247.263 28.544C247.498 28.8853 247.754 29.1307 248.031 29.28C248.309 29.408 248.65 29.472 249.055 29.472H249.151V29.792H238.591V29.472H240.319C240.81 29.472 241.173 29.3973 241.407 29.248C241.663 29.0773 241.791 28.8107 241.791 28.448C241.791 28.32 241.77 28.1813 241.727 28.032C241.706 27.8613 241.674 27.68 241.631 27.488C241.589 27.2747 241.525 27.0507 241.439 26.816L239.615 21.44H231.359L229.535 26.4C229.429 26.6773 229.333 26.944 229.247 27.2C229.183 27.4347 229.13 27.648 229.087 27.84C229.045 28.032 229.023 28.2133 229.023 28.384C229.023 28.7893 229.151 29.0773 229.407 29.248C229.663 29.3973 230.058 29.472 230.591 29.472H232.863V29.792H225.183ZM231.487 21.12H239.519L237.535 15.136C237.365 14.624 237.162 14.016 236.927 13.312C236.714 12.5867 236.501 11.8613 236.287 11.136C236.095 10.3893 235.935 9.74933 235.807 9.216C235.679 9.6 235.53 10.0373 235.359 10.528C235.189 11.0187 235.007 11.5307 234.815 12.064C234.623 12.5973 234.431 13.1093 234.239 13.6C234.069 14.0907 233.909 14.528 233.759 14.912L231.487 21.12Z" fill="#FECEB1"/>
<path d="M9.29675 70.112C8.18742 70.112 7.19542 69.9947 6.32075 69.76C5.46742 69.5253 4.75275 69.2053 4.17675 68.8C3.60075 68.3947 3.16342 67.9253 2.86475 67.392C2.58742 66.8373 2.44875 66.2613 2.44875 65.664C2.44875 65.1093 2.55542 64.6613 2.76875 64.32C3.00342 63.9573 3.32342 63.6907 3.72875 63.52C4.13408 63.328 4.59275 63.232 5.10475 63.232C5.12608 64.7893 5.30742 66.048 5.64875 67.008C5.99008 67.968 6.49142 68.672 7.15275 69.12C7.83542 69.568 8.66742 69.792 9.64875 69.792C10.9928 69.792 12.0808 69.408 12.9128 68.64C13.7661 67.872 14.1928 66.7413 14.1928 65.248C14.1928 64.2667 14.0008 63.4773 13.6168 62.88C13.2328 62.2613 12.6461 61.7067 11.8568 61.216C11.0674 60.7253 10.0434 60.2027 8.78475 59.648C8.01675 59.3067 7.27008 58.9333 6.54475 58.528C5.84075 58.1227 5.21142 57.6533 4.65675 57.12C4.10208 56.5867 3.66475 55.9573 3.34475 55.232C3.04608 54.4853 2.89675 53.632 2.89675 52.672C2.89675 51.3707 3.18475 50.272 3.76075 49.376C4.33675 48.48 5.15808 47.7973 6.22475 47.328C7.31275 46.8587 8.58208 46.624 10.0328 46.624C11.3341 46.624 12.4434 46.7947 13.3608 47.136C14.2994 47.4773 15.0248 47.9253 15.5368 48.48C16.0701 49.0347 16.3368 49.6427 16.3368 50.304C16.3368 50.9653 16.0701 51.4987 15.5368 51.904C15.0248 52.288 14.3208 52.48 13.4248 52.48C13.4248 50.624 13.1368 49.248 12.5608 48.352C12.0061 47.4347 11.0674 46.976 9.74475 46.976C9.01942 46.976 8.34742 47.1253 7.72875 47.424C7.13142 47.7227 6.66208 48.1813 6.32075 48.8C5.97942 49.3973 5.80875 50.1867 5.80875 51.168C5.80875 52.1493 6.00075 52.96 6.38475 53.6C6.76875 54.24 7.35542 54.8053 8.14475 55.296C8.93408 55.7653 9.94742 56.288 11.1848 56.864C12.3794 57.376 13.4248 57.92 14.3208 58.496C15.2381 59.0507 15.9527 59.7333 16.4648 60.544C16.9767 61.3547 17.2327 62.3787 17.2327 63.616C17.2327 64.9387 16.9234 66.0907 16.3048 67.072C15.6861 68.032 14.7794 68.7787 13.5848 69.312C12.4114 69.8453 10.9821 70.112 9.29675 70.112Z" fill="#FECEB1"/>
<path d="M18.261 69.792V69.472H19.285C19.7543 69.472 20.1383 69.3973 20.437 69.248C20.7357 69.0987 21.0023 68.8533 21.237 68.512C21.4717 68.1493 21.6957 67.648 21.909 67.008L29.013 46.944H31.061L38.837 67.616C39.029 68.0853 39.2103 68.4587 39.381 68.736C39.573 68.992 39.7863 69.184 40.021 69.312C40.277 69.4187 40.565 69.472 40.885 69.472H41.205V69.792H31.925V69.472H32.949C33.653 69.472 34.165 69.3867 34.485 69.216C34.8263 69.024 34.997 68.6933 34.997 68.224C34.997 68.096 34.9863 67.968 34.965 67.84C34.9437 67.6907 34.9117 67.5307 34.869 67.36C34.8477 67.168 34.7943 66.976 34.709 66.784L32.789 61.472H24.245L22.453 66.496C22.3677 66.688 22.3037 66.88 22.261 67.072C22.2183 67.264 22.1757 67.4453 22.133 67.616C22.1117 67.7653 22.101 67.904 22.101 68.032C22.101 68.5653 22.3143 68.9387 22.741 69.152C23.189 69.3653 23.9037 69.472 24.885 69.472H26.037V69.792H18.261ZM24.341 61.152H32.661L30.421 55.008C30.1863 54.3253 29.9517 53.6533 29.717 52.992C29.4823 52.3093 29.2583 51.648 29.045 51.008C28.853 50.368 28.6823 49.76 28.533 49.184C28.3837 49.632 28.2343 50.0693 28.085 50.496C27.957 50.9227 27.8183 51.3493 27.669 51.776C27.5197 52.2027 27.3597 52.64 27.189 53.088C27.0183 53.536 26.8477 54.016 26.677 54.528L24.341 61.152Z" fill="#FECEB1"/>
<path d="M42.3177 69.792V69.472H43.5337C44.0457 69.472 44.4724 69.3973 44.8138 69.248C45.1764 69.0987 45.4431 68.864 45.6138 68.544C45.8058 68.2027 45.9017 67.7653 45.9017 67.232V49.376C45.9017 48.864 45.8058 48.4587 45.6138 48.16C45.4431 47.84 45.1764 47.616 44.8138 47.488C44.4724 47.3387 44.0457 47.264 43.5337 47.264H42.3177V46.944H49.1017L61.0378 64.928V49.472C61.0378 48.9387 60.9417 48.512 60.7497 48.192C60.5791 47.872 60.3231 47.6373 59.9818 47.488C59.6404 47.3387 59.2138 47.264 58.7018 47.264H57.3898V46.944H65.0378V47.264H63.7257C63.2137 47.264 62.7871 47.3387 62.4458 47.488C62.1044 47.6373 61.8378 47.8827 61.6458 48.224C61.4538 48.544 61.3577 48.9707 61.3577 49.504V69.792H60.1418L46.2217 48.832V67.232C46.2217 67.7653 46.3071 68.2027 46.4777 68.544C46.6697 68.864 46.9364 69.0987 47.2778 69.248C47.6404 69.3973 48.0671 69.472 48.5578 69.472H49.9977V69.792H42.3177Z" fill="#FECEB1"/>
<path d="M70.8788 69.792V69.472H71.5508C72.0628 69.472 72.4894 69.3973 72.8307 69.248C73.1934 69.0987 73.4601 68.864 73.6308 68.544C73.8228 68.2027 73.9187 67.7653 73.9187 67.232V47.264H71.4548C70.3667 47.264 69.4814 47.4027 68.7988 47.68C68.1374 47.936 67.6468 48.384 67.3268 49.024C67.0281 49.6427 66.8468 50.4853 66.7828 51.552L66.6868 52.704H66.3668L66.5908 46.944H85.0547L85.2467 52.704H84.9268L84.8627 51.552C84.7987 50.4853 84.6068 49.6427 84.2868 49.024C83.9668 48.384 83.4761 47.936 82.8148 47.68C82.1534 47.4027 81.2681 47.264 80.1588 47.264H77.6628V67.232C77.6628 67.7653 77.7481 68.2027 77.9187 68.544C78.0894 68.864 78.3561 69.0987 78.7188 69.248C79.0814 69.3973 79.5081 69.472 79.9987 69.472H80.6708V69.792H70.8788Z" fill="#FECEB1"/>
<path d="M97.2305 70.112C94.9265 70.112 93.0065 69.6213 91.4705 68.64C89.9558 67.6587 88.8252 66.2827 88.0785 64.512C87.3318 62.7413 86.9585 60.672 86.9585 58.304C86.9585 55.936 87.3318 53.8773 88.0785 52.128C88.8252 50.3787 89.9665 49.024 91.5025 48.064C93.0385 47.0827 94.9585 46.592 97.2625 46.592C99.4598 46.592 101.316 47.0827 102.83 48.064C104.366 49.024 105.529 50.3893 106.318 52.16C107.108 53.9093 107.503 55.968 107.503 58.336C107.503 60.704 107.097 62.7733 106.286 64.544C105.497 66.2933 104.335 67.6587 102.799 68.64C101.284 69.6213 99.4278 70.112 97.2305 70.112ZM97.2305 69.792C98.3185 69.792 99.2572 69.5787 100.047 69.152C100.836 68.704 101.476 68.0213 101.966 67.104C102.457 66.1653 102.82 64.9707 103.054 63.52C103.31 62.0693 103.438 60.3413 103.438 58.336C103.438 56.3307 103.31 54.6133 103.054 53.184C102.82 51.7333 102.457 50.5493 101.966 49.632C101.476 48.6933 100.836 48.0107 100.047 47.584C99.2785 47.136 98.3505 46.912 97.2625 46.912C96.1745 46.912 95.2358 47.136 94.4465 47.584C93.6572 48.0107 93.0065 48.6933 92.4945 49.632C91.9825 50.5493 91.5985 51.7333 91.3425 53.184C91.1078 54.6133 90.9905 56.3307 90.9905 58.336C90.9905 60.3413 91.1078 62.0693 91.3425 63.52C91.5985 64.9707 91.9718 66.1653 92.4625 67.104C92.9745 68.0213 93.6252 68.704 94.4145 69.152C95.2038 69.5787 96.1425 69.792 97.2305 69.792Z" fill="#FECEB1"/>
<path d="M128.543 70.112C126.239 70.112 124.319 69.6213 122.783 68.64C121.268 67.6587 120.138 66.2827 119.391 64.512C118.644 62.7413 118.271 60.672 118.271 58.304C118.271 55.936 118.644 53.8773 119.391 52.128C120.138 50.3787 121.279 49.024 122.815 48.064C124.351 47.0827 126.271 46.592 128.575 46.592C130.772 46.592 132.628 47.0827 134.143 48.064C135.679 49.024 136.842 50.3893 137.631 52.16C138.42 53.9093 138.815 55.968 138.815 58.336C138.815 60.704 138.41 62.7733 137.599 64.544C136.81 66.2933 135.647 67.6587 134.111 68.64C132.596 69.6213 130.74 70.112 128.543 70.112ZM128.543 69.792C129.631 69.792 130.57 69.5787 131.359 69.152C132.148 68.704 132.788 68.0213 133.279 67.104C133.77 66.1653 134.132 64.9707 134.367 63.52C134.623 62.0693 134.751 60.3413 134.751 58.336C134.751 56.3307 134.623 54.6133 134.367 53.184C134.132 51.7333 133.77 50.5493 133.279 49.632C132.788 48.6933 132.148 48.0107 131.359 47.584C130.591 47.136 129.663 46.912 128.575 46.912C127.487 46.912 126.548 47.136 125.759 47.584C124.97 48.0107 124.319 48.6933 123.807 49.632C123.295 50.5493 122.911 51.7333 122.655 53.184C122.42 54.6133 122.303 56.3307 122.303 58.336C122.303 60.3413 122.42 62.0693 122.655 63.52C122.911 64.9707 123.284 66.1653 123.775 67.104C124.287 68.0213 124.938 68.704 125.727 69.152C126.516 69.5787 127.455 69.792 128.543 69.792Z" fill="#FECEB1"/>
<path d="M141.724 69.792V69.472H142.94C143.452 69.472 143.879 69.3973 144.22 69.248C144.583 69.0987 144.849 68.864 145.02 68.544C145.212 68.2027 145.308 67.7653 145.308 67.232V49.376C145.308 48.864 145.212 48.4587 145.02 48.16C144.849 47.84 144.583 47.616 144.22 47.488C143.879 47.3387 143.452 47.264 142.94 47.264H141.724V46.944H148.508L160.444 64.928V49.472C160.444 48.9387 160.348 48.512 160.156 48.192C159.985 47.872 159.729 47.6373 159.388 47.488C159.047 47.3387 158.62 47.264 158.108 47.264H156.796V46.944H164.444V47.264H163.132C162.62 47.264 162.193 47.3387 161.852 47.488C161.511 47.6373 161.244 47.8827 161.052 48.224C160.86 48.544 160.764 48.9707 160.764 49.504V69.792H159.548L145.628 48.832V67.232C145.628 67.7653 145.713 68.2027 145.884 68.544C146.076 68.864 146.343 69.0987 146.684 69.248C147.047 69.3973 147.473 69.472 147.964 69.472H149.404V69.792H141.724Z" fill="#FECEB1"/>
<path d="M177.293 70.112C174.989 70.112 173.069 69.6213 171.533 68.64C170.018 67.6587 168.888 66.2827 168.141 64.512C167.394 62.7413 167.021 60.672 167.021 58.304C167.021 55.936 167.394 53.8773 168.141 52.128C168.888 50.3787 170.029 49.024 171.565 48.064C173.101 47.0827 175.021 46.592 177.325 46.592C179.522 46.592 181.378 47.0827 182.893 48.064C184.429 49.024 185.592 50.3893 186.381 52.16C187.17 53.9093 187.565 55.968 187.565 58.336C187.565 60.704 187.16 62.7733 186.349 64.544C185.56 66.2933 184.397 67.6587 182.861 68.64C181.346 69.6213 179.49 70.112 177.293 70.112ZM177.293 69.792C178.381 69.792 179.32 69.5787 180.109 69.152C180.898 68.704 181.538 68.0213 182.029 67.104C182.52 66.1653 182.882 64.9707 183.117 63.52C183.373 62.0693 183.501 60.3413 183.501 58.336C183.501 56.3307 183.373 54.6133 183.117 53.184C182.882 51.7333 182.52 50.5493 182.029 49.632C181.538 48.6933 180.898 48.0107 180.109 47.584C179.341 47.136 178.413 46.912 177.325 46.912C176.237 46.912 175.298 47.136 174.509 47.584C173.72 48.0107 173.069 48.6933 172.557 49.632C172.045 50.5493 171.661 51.7333 171.405 53.184C171.17 54.6133 171.053 56.3307 171.053 58.336C171.053 60.3413 171.17 62.0693 171.405 63.52C171.661 64.9707 172.034 66.1653 172.525 67.104C173.037 68.0213 173.688 68.704 174.477 69.152C175.266 69.5787 176.205 69.792 177.293 69.792Z" fill="#FECEB1"/>
<path d="M190.474 69.792V69.472H191.146C191.658 69.472 192.085 69.3973 192.426 69.248C192.789 69.0987 193.055 68.864 193.226 68.544C193.418 68.224 193.514 67.7973 193.514 67.264V49.408C193.514 48.896 193.418 48.48 193.226 48.16C193.055 47.84 192.789 47.616 192.426 47.488C192.085 47.3387 191.658 47.264 191.146 47.264H190.474V46.944H207.05L207.242 52.608H206.922L206.826 51.552C206.762 50.4853 206.57 49.6427 206.25 49.024C205.93 48.384 205.439 47.936 204.778 47.68C204.117 47.4027 203.242 47.264 202.154 47.264H197.258V58.208H205.162V58.528H197.258V67.232C197.258 67.7653 197.343 68.2027 197.514 68.544C197.685 68.864 197.951 69.0987 198.314 69.248C198.677 69.3973 199.103 69.472 199.594 69.472H200.458V69.792H190.474Z" fill="#FECEB1"/>
<path d="M209.63 69.792V69.472H210.302C210.814 69.472 211.241 69.3973 211.582 69.248C211.945 69.0987 212.212 68.864 212.382 68.544C212.574 68.224 212.67 67.7973 212.67 67.264V49.376C212.67 48.864 212.574 48.4587 212.382 48.16C212.212 47.84 211.945 47.616 211.582 47.488C211.241 47.3387 210.814 47.264 210.302 47.264H209.63V46.944H218.718C220.617 46.944 222.185 47.1787 223.422 47.648C224.66 48.096 225.577 48.768 226.174 49.664C226.793 50.5387 227.102 51.616 227.102 52.896C227.102 54.112 226.857 55.1253 226.366 55.936C225.876 56.7253 225.246 57.3547 224.478 57.824C223.732 58.272 222.942 58.624 222.11 58.88L226.334 65.664C226.825 66.432 227.241 67.072 227.582 67.584C227.945 68.0747 228.265 68.4587 228.542 68.736C228.82 69.0133 229.076 69.2053 229.31 69.312C229.545 69.4187 229.79 69.472 230.046 69.472H230.142V69.792H229.502C228.521 69.792 227.689 69.76 227.006 69.696C226.345 69.6107 225.78 69.472 225.31 69.28C224.862 69.0667 224.457 68.768 224.094 68.384C223.732 68 223.358 67.4987 222.974 66.88L218.27 59.136H216.382V67.264C216.382 67.7973 216.468 68.224 216.638 68.544C216.83 68.864 217.108 69.0987 217.47 69.248C217.833 69.3973 218.26 69.472 218.75 69.472H219.422V69.792H209.63ZM218.526 58.816C219.636 58.816 220.521 58.624 221.182 58.24C221.865 57.856 222.356 57.248 222.654 56.416C222.974 55.584 223.134 54.4853 223.134 53.12C223.134 51.7333 222.974 50.6133 222.654 49.76C222.334 48.8853 221.833 48.256 221.15 47.872C220.468 47.4667 219.572 47.264 218.462 47.264H216.382V58.816H218.526Z" fill="#FECEB1"/>
<path d="M231.068 69.792V69.472H231.74C232.252 69.472 232.678 69.3973 233.02 69.248C233.382 69.0987 233.649 68.864 233.82 68.544C234.012 68.224 234.108 67.7973 234.108 67.264V49.408C234.108 48.896 234.012 48.48 233.82 48.16C233.649 47.84 233.382 47.616 233.02 47.488C232.678 47.3387 232.252 47.264 231.74 47.264H231.068V46.944H247.612L247.804 52.608H247.484L247.42 51.552C247.334 50.4853 247.132 49.6427 246.812 49.024C246.513 48.384 246.033 47.936 245.372 47.68C244.71 47.4027 243.836 47.264 242.748 47.264H237.852V57.664H245.756V57.984H237.852V69.472H243.612C244.764 69.472 245.681 69.344 246.364 69.088C247.068 68.8107 247.58 68.3627 247.9 67.744C248.22 67.104 248.422 66.2507 248.508 65.184L248.572 64.128H248.892L248.668 69.792H231.068Z" fill="#FECEB1"/>
</svg>
