<svg width="40" height="40" viewBox="0 0 40 40" fill="none" xmlns="http://www.w3.org/2000/svg">
<path d="M39.1634 10.3099C38.9374 9.45866 38.4918 8.68176 37.871 8.05698C37.2504 7.43219 36.4764 6.98144 35.6266 6.74988C32.5084 5.9082 20 5.9082 20 5.9082C20 5.9082 7.49166 5.9082 4.37166 6.74988C3.52235 6.98185 2.74883 7.43277 2.12846 8.0575C1.5081 8.68225 1.06265 9.45894 0.836666 10.3099C0 13.4499 0 19.9999 0 19.9999C0 19.9999 0 26.5499 0.836666 29.6899C1.06264 30.5411 1.50829 31.318 2.12899 31.9427C2.74968 32.5675 3.52363 33.0182 4.37334 33.2499C7.49166 34.0915 20 34.0915 20 34.0915C20 34.0915 32.5084 34.0915 35.6284 33.2499C36.4781 33.0185 37.2521 32.5677 37.8729 31.943C38.4936 31.3181 38.9391 30.5411 39.165 29.6899C40 26.5499 40 19.9999 40 19.9999C40 19.9999 40 13.4499 39.1634 10.3099ZM15.9084 25.9465V14.0533L26.3634 19.9999L15.9084 25.9465Z" fill="white"/>
</svg>
