<svg width="40" height="40" viewBox="0 0 40 40" fill="none" xmlns="http://www.w3.org/2000/svg">
<g clip-path="url(#clip0_68_77)">
<path d="M40 20.1221C40 9.07708 31.045 0.12207 20 0.12207C8.955 0.12207 0 9.07708 0 20.1221C0 30.1054 7.31334 38.3787 16.875 39.8787V25.9037H11.7967V20.1204H16.875V15.7171C16.875 10.7054 19.8616 7.9354 24.43 7.9354C26.6166 7.9354 28.9066 8.32708 28.9066 8.32708V13.2487H26.3834C23.8984 13.2487 23.1234 14.7904 23.1234 16.3721V20.1221H28.67L27.7834 25.9054H23.1234V39.8804C32.6866 38.3787 40 30.1038 40 20.1221Z" fill="white"/>
</g>
<defs>
<clipPath id="clip0_68_77">
<rect width="40" height="40" fill="white"/>
</clipPath>
</defs>
</svg>
